<?xml version="1.0" encoding="UTF-8" standalone="no"?>
<svg
   version="1.1"
   width="32"
   height="32"
   id="svg6860"
   xml:space="preserve"
   xmlns:xlink="http://www.w3.org/1999/xlink"
   xmlns="http://www.w3.org/2000/svg"
   xmlns:svg="http://www.w3.org/2000/svg"
   xmlns:rdf="http://www.w3.org/1999/02/22-rdf-syntax-ns#"
   xmlns:cc="http://creativecommons.org/ns#"
   xmlns:dc="http://purl.org/dc/elements/1.1/"><defs
     id="defs6862"><linearGradient
       id="linearGradient3924-0"><stop
         id="stop3926-6"
         style="stop-color:#ffffff;stop-opacity:1"
         offset="0" /><stop
         id="stop3928-3"
         style="stop-color:#ffffff;stop-opacity:0.23529412"
         offset="0.04166666" /><stop
         id="stop3930-2"
         style="stop-color:#ffffff;stop-opacity:0.15686275"
         offset="0.95833325" /><stop
         id="stop3932-62"
         style="stop-color:#ffffff;stop-opacity:0.39215687"
         offset="1" /></linearGradient><linearGradient
       id="linearGradient3688-166-749-6"><stop
         id="stop2883-8"
         style="stop-color:#181818;stop-opacity:1"
         offset="0" /><stop
         id="stop2885-3"
         style="stop-color:#181818;stop-opacity:0"
         offset="1" /></linearGradient><linearGradient
       id="linearGradient3702-501-757-3"><stop
         id="stop2895-3"
         style="stop-color:#181818;stop-opacity:0"
         offset="0" /><stop
         id="stop2897-28"
         style="stop-color:#181818;stop-opacity:1"
         offset="0.5" /><stop
         id="stop2899-8"
         style="stop-color:#181818;stop-opacity:0"
         offset="1" /></linearGradient><radialGradient
       cx="4.9929786"
       cy="43.5"
       r="2.5"
       fx="4.9929786"
       fy="43.5"
       id="radialGradient2976-3-3"
       xlink:href="#linearGradient3688-166-749-6"
       gradientUnits="userSpaceOnUse"
       gradientTransform="matrix(2.003784,0,0,1.4,27.98813,-17.4)" /><radialGradient
       cx="4.9929786"
       cy="43.5"
       r="2.5"
       fx="4.9929786"
       fy="43.5"
       id="radialGradient2978-2-5"
       xlink:href="#linearGradient3688-166-749-6"
       gradientUnits="userSpaceOnUse"
       gradientTransform="matrix(2.003784,0,0,1.4,-20.01187,-104.4)" /><linearGradient
       xlink:href="#linearGradient909-3"
       id="linearGradient930-9-2"
       x1="16.767664"
       y1="2.7676599"
       x2="16.767664"
       y2="29.896721"
       gradientUnits="userSpaceOnUse"
       gradientTransform="translate(4.1936035e-6)" /><linearGradient
       x1="23.99999"
       y1="6.2399855"
       x2="23.99999"
       y2="41.759987"
       id="linearGradient4161-0-2"
       xlink:href="#linearGradient3924-0"
       gradientUnits="userSpaceOnUse"
       gradientTransform="matrix(0.67567568,0,0,0.67567568,-0.21621281,-0.21620614)" /><linearGradient
       xlink:href="#linearGradient3702-501-757-3"
       id="linearGradient963"
       gradientUnits="userSpaceOnUse"
       x1="25.058096"
       y1="47.027729"
       x2="25.058096"
       y2="39.999443" /><linearGradient
       id="linearGradient909-3"><stop
         id="stop901-6"
         style="stop-color:#64baff;stop-opacity:1"
         offset="0" /><stop
         id="stop907-7"
         style="stop-color:#3689e6;stop-opacity:1"
         offset="1" /></linearGradient></defs><metadata
     id="metadata6865"><rdf:RDF><cc:Work
         rdf:about=""><dc:format>image/svg+xml</dc:format><dc:type
           rdf:resource="http://purl.org/dc/dcmitype/StillImage" /></cc:Work></rdf:RDF></metadata><g
     style="display:inline"
     id="g2036-2-8-6"
     transform="matrix(0.6999997,0,0,0.3333336,-0.79999581,15.33333)"><g
       style="opacity:0.4"
       id="g3712-3-7-0"
       transform="matrix(1.052632,0,0,1.285713,-1.263158,-13.42854)"><rect
         style="fill:url(#radialGradient2976-3-3);fill-opacity:1;stroke:none"
         id="rect2801-0-9-6"
         y="40"
         x="38"
         height="7"
         width="5" /><rect
         style="fill:url(#radialGradient2978-2-5);fill-opacity:1;stroke:none"
         id="rect3696-2-2-2"
         transform="scale(-1)"
         y="-47"
         x="-10"
         height="7"
         width="5" /><rect
         style="fill:url(#linearGradient963);fill-opacity:1;stroke:none"
         id="rect3700-1-0-6"
         y="40"
         x="10"
         height="7.0000005"
         width="28" /></g></g><rect
     style="color:#000000;font-variation-settings:normal;display:inline;overflow:visible;visibility:visible;opacity:1;vector-effect:none;fill:url(#linearGradient930-9-2);fill-opacity:1;fill-rule:nonzero;stroke:#0d52bf;stroke-width:1;stroke-linecap:butt;stroke-linejoin:miter;stroke-miterlimit:4;stroke-dasharray:none;stroke-dashoffset:0;stroke-opacity:0.5;marker:none;enable-background:accumulate;stop-color:#000000;stop-opacity:1"
     id="rect5505-21-1-2-1"
     y="2.4999962"
     x="2.5"
     ry="3"
     rx="3"
     height="27.000008"
     width="27.000008" /><rect
     style="opacity:0.35;fill:none;stroke:url(#linearGradient4161-0-2);stroke-width:1;stroke-linecap:round;stroke-linejoin:round;stroke-miterlimit:4;stroke-dasharray:none;stroke-dashoffset:0;stroke-opacity:1"
     id="rect6741-7-4-3-8"
     y="3.4999998"
     x="3.5000038"
     ry="2"
     rx="2"
     height="25"
     width="25" /><path
     id="path9124-5-9"
     style="font-variation-settings:normal;opacity:0.15;mix-blend-mode:normal;vector-effect:none;fill:#002e99;fill-opacity:1;stroke:none;stroke-width:1;stroke-linecap:butt;stroke-linejoin:miter;stroke-miterlimit:4;stroke-dasharray:none;stroke-dashoffset:0;stroke-opacity:1;-inkscape-stroke:none;marker:none;stop-color:#000000;stop-opacity:1"
     d="M 15.935547,8.2399532 C 14.48291,8.3011051 13.378337,9.4021173 12.120809,10.002224 10.969421,10.774549 9.559905,11.225976 8.6308594,12.286828 7.6250795,13.601813 8.116983,15.337483 8,16.859875 c 0.093835,1.382736 -0.222372,2.828983 0.234375,4.163282 0.6344776,1.529668 2.384579,1.971627 3.644816,2.834536 1.243574,0.610829 2.338354,1.60456 3.720418,1.880307 1.64308,0.215495 2.901598,-1.080491 4.279582,-1.740786 1.151958,-0.773594 2.564893,-1.223704 3.491903,-2.288511 C 24.374059,20.393216 23.883237,18.659384 24,17.13761 23.906165,15.754874 24.222372,14.308627 23.765625,12.974328 23.130007,11.44614 21.380498,11.004623 20.120809,10.141745 18.876787,9.5316624 17.783026,8.5358735 16.400391,8.2614376 c -0.1549,-0.00411 -0.309975,-0.03041 -0.464844,-0.021484 z m 4.078125,5.3144538 C 19.009115,14.127974 18.004557,14.701542 17,15.27511 c 0,-1.153646 0,-2.307292 0,-3.460938 1.004557,0.580078 2.009115,1.160156 3.013672,1.740235 z M 15,17.58175 c 0,1.534505 0,3.069011 0,4.603516 -1.320835,-0.782492 -2.699519,-1.517635 -3.986328,-2.328125 -0.0091,-1.51862 -0.0013,-3.037804 -0.0039,-4.556641 1.330078,0.760417 2.660156,1.520834 3.990234,2.28125 z" /><path
     id="path9124-5"
     style="font-variation-settings:normal;opacity:0.3;mix-blend-mode:normal;vector-effect:none;fill:#002e99;fill-opacity:1;stroke:none;stroke-width:1;stroke-linecap:butt;stroke-linejoin:miter;stroke-miterlimit:4;stroke-dasharray:none;stroke-dashoffset:0;stroke-opacity:1;-inkscape-stroke:none;marker:none;stop-color:#000000;stop-opacity:1"
     d="m 16,9.2377188 c -0.359366,0 -0.718449,0.093061 -1.041016,0.2792969 L 10.041016,12.35686 C 9.3958823,12.72933 9,13.414658 9,14.159594 v 5.677735 c 0,0.744937 0.3958823,1.432219 1.041016,1.804687 l 4.917968,2.839844 c 0.645135,0.372469 1.436898,0.372469 2.082032,0 l 4.917968,-2.839844 C 22.604119,21.269548 23,20.582266 23,19.837329 V 14.159594 C 23,13.414658 22.604119,12.72933 21.958984,12.35686 L 17.041016,9.5170157 C 16.718449,9.3307829 16.359366,9.2377189 16,9.2377188 Z m 0,1.0097652 c 0.185088,0 0.369369,0.04768 0.537109,0.144532 l 4.917969,2.839844 c 0.177006,0.102194 0.314261,0.247214 0.40625,0.417969 L 16,16.999438 v 6.751953 c -0.184702,0 -0.369407,-0.04771 -0.537109,-0.144531 l -4.917969,-2.839844 c -0.334329,-0.193024 -0.535156,-0.542392 -0.535156,-0.929687 v -5.677735 c 0,-0.183057 0.04646,-0.356719 0.128906,-0.509765 L 16,16.999438 Z" /><path
     id="path9124"
     style="font-variation-settings:normal;opacity:1;mix-blend-mode:normal;vector-effect:none;fill:#ffffff;fill-opacity:1;stroke:none;stroke-width:1;stroke-linecap:butt;stroke-linejoin:miter;stroke-miterlimit:4;stroke-dasharray:none;stroke-dashoffset:0;stroke-opacity:1;-inkscape-stroke:none;marker:none;stop-color:#000000;stop-opacity:1"
     d="m 16,8.2382536 c -0.359366,0 -0.718449,0.093061 -1.041016,0.2792969 L 10.041016,11.357395 C 9.3958823,11.729865 9,12.415193 9,13.160129 v 5.677735 c 0,0.744937 0.3958823,1.432219 1.041016,1.804687 l 4.917968,2.839844 c 0.645135,0.372469 1.436898,0.372469 2.082032,0 l 4.917968,-2.839844 C 22.604119,20.270083 23,19.582801 23,18.837864 v -5.677735 c 0,-0.744936 -0.395881,-1.430264 -1.041016,-1.802734 L 17.041016,8.5175505 C 16.718449,8.3313177 16.359366,8.2382537 16,8.2382536 Z m 0,1.0097657 c 0.185088,0 0.369369,0.047685 0.537109,0.1445312 l 4.917969,2.8398445 c 0.177006,0.102194 0.314261,0.247214 0.40625,0.417969 L 16,15.999973 v 6.751953 c -0.184702,0 -0.369407,-0.04771 -0.537109,-0.144531 l -4.917969,-2.839844 c -0.334329,-0.193024 -0.535156,-0.542392 -0.535156,-0.929687 v -5.677735 c 0,-0.183057 0.04646,-0.356719 0.128906,-0.509765 L 16,15.999973 Z" /><path
     id="path9124-2"
     style="font-variation-settings:normal;opacity:0.07;mix-blend-mode:normal;vector-effect:none;fill:#002e99;fill-opacity:1;stroke:none;stroke-width:1;stroke-linecap:butt;stroke-linejoin:miter;stroke-miterlimit:4;stroke-dasharray:none;stroke-dashoffset:0;stroke-opacity:1;-inkscape-stroke:none;marker:none;stop-color:#000000;stop-opacity:1"
     d="M 17,8.4977657 V 9.659875 l 1.40625,0.8125 1.015625,-0.5800781 -2.380859,-1.375 C 17.027787,8.5096592 17.013349,8.50509 17,8.4977657 Z M 11.009766,11.3005 c 0.0011,0.615868 0.0025,1.231736 0.002,1.847657 L 15,15.427453 V 13.58175 Z M 23,18.08175 c -0.97444,0.836927 -2.222338,1.311591 -3.294922,2.015625 C 18.516263,20.685663 17.365317,21.752162 16,21.761438 v 0.990234 c -0.184702,0 -0.369408,-0.04771 -0.537109,-0.144531 L 10.544922,19.767297 C 10.210593,19.574273 10.009766,19.224904 10.009766,18.83761 v -0.04297 C 9.6471015,18.586213 9.2997626,18.360503 9,18.08761 v 0.75 c 0,0.744936 0.3958826,1.432219 1.041016,1.804687 l 4.917968,2.839844 c 0.645135,0.372469 1.436898,0.372469 2.082032,0 l 4.917968,-2.839844 C 22.604119,20.269829 23,19.582546 23,18.83761 Z" /><path
     id="path9124-7"
     style="font-variation-settings:normal;opacity:0.15;mix-blend-mode:normal;vector-effect:none;fill:#002e99;fill-opacity:1;stroke:none;stroke-width:1;stroke-linecap:butt;stroke-linejoin:miter;stroke-miterlimit:4;stroke-dasharray:none;stroke-dashoffset:0;stroke-opacity:1;-inkscape-stroke:none;marker:none;stop-color:#000000;stop-opacity:1"
     d="m 16,8.2477657 v 1 c 0.185088,0 0.36937,0.047685 0.537109,0.1445312 l 4.613282,2.6640631 0.710937,-0.40625 c -0.09199,-0.170755 -0.229244,-0.315775 -0.40625,-0.417969 L 16.537109,8.3922969 C 16.36937,8.2954508 16.185088,8.2477657 16,8.2477657 Z M 10.138672,11.65011 c -0.08245,0.153045 -0.128906,0.326708 -0.128906,0.509765 v 1 c 0,-0.183057 0.04646,-0.35672 0.128906,-0.509765 L 16,15.999719 v -1 z M 9,17.83761 v 1 c 0,0.744936 0.3958826,1.432219 1.041016,1.804687 l 4.917968,2.839844 c 0.645135,0.372469 1.436898,0.372469 2.082032,0 l 4.917968,-2.839844 C 22.604119,20.269829 23,19.582546 23,18.83761 v -1 c 0,0.744936 -0.395881,1.432219 -1.041016,1.804687 l -4.917968,2.839844 c -0.645134,0.372469 -1.436897,0.372469 -2.082032,0 L 10.041016,19.642297 C 9.3958826,19.269829 9,18.582546 9,17.83761 Z" /></svg>
